<svg xmlns="http://www.w3.org/2000/svg" xmlns:xlink="http://www.w3.org/1999/xlink" width="617" height="1080" viewBox="0 0 617 1080"><defs><linearGradient id="a" x1="0.5" x2="1.079" y2="0.897" gradientUnits="objectBoundingBox"><stop offset="0" stop-color="#2563e1"/><stop offset="1" stop-color="#588fff" stop-opacity="0.667"/><stop offset="1" stop-color="#133271" stop-opacity="0"/></linearGradient><linearGradient id="c" x1="0.4" y1="0.296" x2="0.5" y2="1" gradientUnits="objectBoundingBox"><stop offset="0" stop-color="#2563eb"/><stop offset="0.74" stop-color="#3473f2"/><stop offset="1" stop-color="#316ce4"/></linearGradient></defs><g transform="translate(-560 24)"><rect width="617" height="1080" transform="translate(560 -24)" fill="#2563eb"/><path d="M0,0H616.924s3.423,60.4-35.687,110.477-100.864,54.009-120.753,89.838c-39.7,71.515,56.681,184.21-12.616,250.09s-165.823-27.023-201.856,63.13,57.9,183.387-27.034,252.518S0,749.821,0,749.821Z" transform="translate(560 -24)" fill="url(#a)"/><path d="M0,0H505.03s2.8,36.6-29.214,66.944-82.57,32.727-98.852,54.438c-32.5,43.335,46.4,111.623-10.328,151.544s-135.747-16.374-165.245,38.254,47.4,111.125-22.131,153.015S0,454.359,0,454.359Z" transform="translate(560 -24)" fill="url(#a)"/><path d="M127,255a126.352,126.352,0,0,1-89.8-37.344,127.718,127.718,0,0,1,0-180.312A127.242,127.242,0,0,1,244.02,177.128a127.7,127.7,0,0,1-67.586,67.852A125.777,125.777,0,0,1,127,255Zm0-171.189A43.69,43.69,0,1,0,170.518,127.5,43.652,43.652,0,0,0,127,83.811Z" transform="translate(1140 1039) rotate(180)" fill="url(#c)"/></g></svg>